<svg width="65" height="65" viewBox="0 0 65 65" fill="none" xmlns="http://www.w3.org/2000/svg">
<ellipse cx="32.5" cy="32.4949" rx="32.5" ry="32.4949" fill="#F1F1F1"/>
<path fill-rule="evenodd" clip-rule="evenodd" d="M29.7381 29.1584H34.4221V31.4912C35.0969 30.1495 36.8272 28.944 39.4266 28.944C44.4095 28.944 45.5925 31.6148 45.5925 36.515V45.5904H40.5478V37.631C40.5478 34.8404 39.873 33.2667 38.1553 33.2667C35.7729 33.2667 34.7828 34.9627 34.7828 37.6297V45.5904H29.7381V29.1584ZM21.0875 45.376H26.1323V28.944H21.0875V45.376ZM26.855 23.586C26.8552 24.0088 26.7713 24.4274 26.6083 24.8175C26.4452 25.2076 26.2063 25.5614 25.9053 25.8583C25.2954 26.4644 24.4698 26.8036 23.6099 26.8016C22.7515 26.801 21.9279 26.4626 21.3171 25.8596C21.0172 25.5616 20.779 25.2074 20.6163 24.8173C20.4535 24.4272 20.3694 24.0087 20.3686 23.586C20.3686 22.7323 20.7092 21.9152 21.3183 21.3124C21.9286 20.7086 22.7526 20.3701 23.6112 20.3705C24.4713 20.3705 25.2961 20.7097 25.9053 21.3124C26.5132 21.9152 26.855 22.7323 26.855 23.586Z" fill="black"/>
</svg>
