<svg width="75" height="35" viewBox="0 0 75 35" fill="none" xmlns="http://www.w3.org/2000/svg">
<path d="M17.8554 18.2162L30.0433 11.1835C30.7247 10.7893 31.3219 10.2648 31.8006 9.63995C32.2793 9.01505 32.6303 8.30198 32.8335 7.54144C33.0366 6.78091 33.088 5.98781 32.9846 5.20742C32.8813 4.42703 32.6252 3.67465 32.2311 2.99322C31.837 2.31179 31.3125 1.71466 30.6876 1.23592C30.0627 0.757188 29.3496 0.406226 28.5891 0.203072C27.0531 -0.207216 25.417 0.00946138 24.0408 0.805438L2.99439 12.9536L17.8554 18.2162Z" fill="#EA4335"/>
<path d="M27.0329 34.6359C28.3523 34.6373 29.6353 34.2034 30.683 33.4014C31.7307 32.5994 32.4845 31.4742 32.8276 30.2002C33.1707 28.9262 33.0839 27.5746 32.5806 26.3549C32.0774 25.1353 31.1858 24.1157 30.0441 23.4544L8.98972 11.3022C7.61351 10.5073 5.97788 10.2917 4.44266 10.7027C2.90743 11.1137 1.59837 12.1178 0.803448 13.494C0.00852586 14.8702 -0.20714 16.5058 0.203894 18.0411C0.614928 19.5763 1.61899 20.8854 2.99521 21.6803L24.0377 33.8284C24.9474 34.357 25.9808 34.6355 27.0329 34.6359Z" fill="#4285F4"/>
<path d="M47.967 34.6359C49.0168 34.6385 50.0486 34.364 50.9583 33.8403L72.0008 21.6922L57.3307 16.3142L44.9638 23.4544C43.8208 24.1145 42.9276 25.1335 42.4228 26.3531C41.9181 27.5728 41.83 28.925 42.1723 30.1998C42.5146 31.4746 43.268 32.6008 44.3158 33.4037C45.3636 34.2065 46.647 34.641 47.967 34.6399V34.6359Z" fill="#FBBC04"/>
<path d="M68.9962 24.1351C70.3166 24.138 71.6009 23.7046 72.6496 22.9023C73.6982 22.1 74.4524 20.9737 74.795 19.6985C75.1375 18.4233 75.0491 17.0707 74.5435 15.8509C74.038 14.6311 73.1436 13.6126 71.9994 12.9535L50.957 0.8054C49.5807 0.0104784 47.9451 -0.205187 46.4099 0.205847C44.8747 0.616881 43.5656 1.62094 42.7707 2.99716C41.9758 4.37337 41.7601 6.009 42.1711 7.54422C42.5822 9.07944 43.5862 10.3885 44.9624 11.1834L66.0049 23.3316C66.9139 23.858 67.9457 24.1352 68.9962 24.1351Z" fill="#0F9D58"/>
</svg>
