<svg width="65" height="65" viewBox="0 0 65 65" fill="none" xmlns="http://www.w3.org/2000/svg">
<ellipse cx="32.5" cy="32.4949" rx="32.5" ry="32.4949" fill="#F1F1F1"/>
<path d="M46.1874 23.9208C45.2025 24.3571 44.1446 24.652 43.0323 24.7852C44.18 24.0986 45.0385 23.0181 45.4479 21.7451C44.3697 22.3854 43.1896 22.8361 41.959 23.0776C41.1315 22.1942 40.0354 21.6087 38.841 21.4119C37.6465 21.2151 36.4205 21.4182 35.3532 21.9895C34.286 22.5608 33.4373 23.4684 32.9388 24.5714C32.4403 25.6744 32.32 26.9111 32.5966 28.0895C30.4119 27.9798 28.2746 27.4121 26.3236 26.4231C24.3725 25.4341 22.6513 24.046 21.2715 22.3489C20.7997 23.1626 20.5285 24.106 20.5285 25.1107C20.5279 26.0152 20.7507 26.9058 21.177 27.7036C21.6033 28.5013 22.22 29.1816 22.9723 29.6839C22.0998 29.6561 21.2466 29.4204 20.4836 28.9964V29.0671C20.4835 30.3357 20.9224 31.5653 21.7258 32.5471C22.5292 33.529 23.6476 34.2027 24.8912 34.454C24.0819 34.673 23.2333 34.7053 22.4097 34.5483C22.7606 35.6399 23.444 36.5944 24.3645 37.2783C25.2849 37.9621 26.3961 38.3411 27.5426 38.3621C25.5964 39.8897 23.1927 40.7184 20.7183 40.7147C20.28 40.7148 19.8421 40.6892 19.4068 40.6381C21.9184 42.2527 24.8421 43.1096 27.8281 43.1063C37.9359 43.1063 43.4617 34.7358 43.4617 27.4763C43.4617 27.2404 43.4558 27.0022 43.4452 26.7664C44.52 25.9892 45.4478 25.0268 46.185 23.9244L46.1874 23.9208Z" fill="black"/>
</svg>
