<svg width="30" height="39" viewBox="0 0 30 39" fill="none" xmlns="http://www.w3.org/2000/svg">
<path fill-rule="evenodd" clip-rule="evenodd" d="M6.04325 6.01173C8.46037 3.67056 11.3719 2.5 14.7778 2.5C18.1836 2.5 21.0814 3.65727 23.471 5.97183C25.8608 8.2864 27.0556 11.0931 27.0556 14.392C27.0556 16.0414 26.6298 17.9303 25.7783 20.0587C24.9268 22.1869 23.8968 24.1824 22.6883 26.0446C21.4797 27.9069 20.285 29.6494 19.1039 31.2723C17.9228 32.8952 16.9202 34.1854 16.0962 35.1432L14.7778 36.5C14.4482 36.1275 14.0086 35.6355 13.4593 35.0235C12.91 34.4116 11.9212 33.1878 10.4929 31.352C9.06462 29.5164 7.81488 27.734 6.74365 26.0048C5.67245 24.2755 4.69736 22.3201 3.81843 20.1384C2.93947 17.957 2.5 16.0414 2.5 14.392C2.5 11.0931 3.68107 8.2997 6.04325 6.01173Z" stroke="black" stroke-width="5" stroke-linecap="round" stroke-linejoin="round"/>
<path d="M16.6668 14.778C16.6668 15.8213 15.8212 16.6669 14.7779 16.6669C13.7347 16.6669 12.889 15.8213 12.889 14.778C12.889 13.7349 13.7347 12.8892 14.7779 12.8892C15.8212 12.8892 16.6668 13.7349 16.6668 14.778Z" stroke="black" stroke-width="5" stroke-linecap="round" stroke-linejoin="round"/>
</svg>
