<svg width="1764" height="207" viewBox="0 0 1764 207" fill="none" xmlns="http://www.w3.org/2000/svg">
<g clip-path="url(#clip0_23_1831)">
<path d="M0 114.639L82.8987 68.835L131.578 157.196L48.6794 202.999L0 114.639Z" fill="#0F9D58"/>
<path d="M49.3418 130.598L70.0664 119.147L82.2363 141.237L61.5116 152.688L49.3418 130.598Z" fill="#0F9D58"/>
</g>
<path d="M124.84 105.659C153.327 113.652 183.057 97.5874 191.245 69.7766L88.0862 40.8293C79.8982 68.6404 96.3535 97.6652 124.84 105.659Z" fill="#EA4335"/>
<path d="M183.395 86.8383L143.952 144.85H222.839L183.395 86.8383Z" fill="#FCCA23"/>
<path d="M322.702 84.964C303.194 113.763 311.293 152.542 340.792 171.587L362.314 139.814C350.792 132.375 347.633 117.228 355.253 105.979C362.869 94.7349 378.382 91.6428 389.905 99.0817L411.427 67.3084C381.928 48.2639 342.206 56.1701 322.702 84.964Z" fill="#FBBC04"/>
<path d="M1513.66 11.8488C1495.21 28.5378 1494.12 56.658 1511.22 74.6621L1531.56 56.2496C1524.89 49.2172 1525.32 38.2345 1532.52 31.7156C1539.72 25.1997 1550.97 25.6131 1557.65 32.6455L1577.99 14.233C1560.9 -3.77093 1532.09 -4.83712 1513.66 11.8488Z" fill="#4285F4"/>
<circle cx="421.082" cy="129.847" r="42.0082" fill="#4285F4"/>
<circle cx="678.133" cy="77.8365" r="42.0082" fill="#FBBC04"/>
<circle cx="493.097" cy="114.844" r="13.0025" fill="#FCCA23"/>
<circle cx="313.061" cy="50.8312" r="22.0043" fill="#EA4335"/>
<circle cx="207.541" cy="102.341" r="13.5026" fill="#0F9D58"/>
<rect x="394.077" y="59.7431" width="32.0063" height="95.0186" transform="rotate(-60.7136 394.077 59.7431)" fill="#0F9D58"/>
<path d="M556.47 179.252L629.103 112.077L521.221 87.8385L556.47 179.252Z" fill="#4285F4"/>
<g clip-path="url(#clip1_23_1831)">
<path d="M1209.15 32.7476L1258.34 65.736L1226.62 108.875L1177.43 75.8869L1209.15 32.7476Z" fill="#FBBC04"/>
<path d="M1215.7 61.2957L1228 69.5428L1220.07 80.3276L1207.77 72.0805L1215.7 61.2957Z" fill="#FBBC04"/>
</g>
<g clip-path="url(#clip2_23_1831)">
<path d="M1241.51 88.866L1278.32 70.8355L1338.99 184.427L1302.19 202.457L1241.51 88.866Z" fill="#EA4335"/>
<path d="M1278.07 124.701L1287.27 120.194L1302.44 148.591L1293.23 153.099L1278.07 124.701Z" fill="#EA4335"/>
</g>
<path d="M1190.63 96.452L1208.81 182.125L1281.43 117.148L1190.63 96.452Z" fill="#34AD5C"/>
<g clip-path="url(#clip3_23_1831)">
<path d="M592.116 64.9287L622.771 51.8319L662.291 144.651L631.636 157.748L592.116 64.9287Z" fill="#EA4335"/>
<path d="M618.432 94.8247L626.095 91.5505L635.975 114.755L628.312 118.03L618.432 94.8247Z" fill="#EA4335"/>
</g>
<path d="M1144.73 69.5375C1128 93.6786 1134.88 125.599 1160.1 140.833L1220.7 53.4108C1195.47 38.1761 1161.46 45.3963 1144.73 69.5375Z" fill="#4285F4"/>
<path d="M718.379 102.509L678.976 192.292L787.861 172.79L718.379 102.509Z" fill="#34AD5C"/>
<g clip-path="url(#clip4_23_1831)">
<path d="M560.77 41.8295L592.314 73.5247L562.648 102.977L531.104 71.2815L560.77 41.8295Z" fill="#FBBC04"/>
<path d="M561.474 64.7597L569.361 72.6836L561.944 80.0466L554.058 72.1228L561.474 64.7597Z" fill="#FBBC04"/>
</g>
<path d="M1077.78 105.842C1043.14 105.842 1015.06 134.054 1015.06 168.854L1140.5 168.854C1140.5 134.053 1112.42 105.842 1077.78 105.842Z" fill="#FBBC04"/>
<g clip-path="url(#clip5_23_1831)">
<path d="M1039.2 40.8293L1066.82 23.8556L1112.76 93.0413L1085.15 110.015L1039.2 40.8293Z" fill="#34A853"/>
<path d="M1066.79 60.4088L1073.69 56.1654L1085.18 73.4618L1078.27 77.7052L1066.79 60.4088Z" fill="#34A853"/>
</g>
<ellipse cx="958.188" cy="61.8334" rx="31.0061" ry="29.0057" fill="#FBBC04"/>
<path d="M952.084 84.3798L963.75 171.127L1041.07 111.547L952.084 84.3798Z" fill="#4285F4"/>
<ellipse cx="1029.97" cy="86.3382" rx="24.5048" ry="22.5044" fill="#EA4335"/>
<g clip-path="url(#clip6_23_1831)">
<path d="M242.895 55.8322L312.756 77.1997L289.904 151.585L220.044 130.217L242.895 55.8322Z" fill="#4285F4"/>
<path d="M260.524 91.7396L277.989 97.0815L272.276 115.678L254.811 110.336L260.524 91.7396Z" fill="#4285F4"/>
</g>
<g clip-path="url(#clip7_23_1831)">
<path d="M828.282 112.843L843.252 117.422L840.132 127.58L825.162 123.001L828.282 112.843Z" fill="#4285F4"/>
<path d="M832.726 118.37L836.468 119.515L835.688 122.054L831.946 120.909L832.726 118.37Z" fill="#4285F4"/>
</g>
<g clip-path="url(#clip8_23_1831)">
<path d="M730.143 90.4073L787.586 42.8295L838.375 104.304L780.933 151.882L730.143 90.4073Z" fill="#0F9D58"/>
<path d="M770.73 95.6188L785.091 83.7243L797.788 99.093L783.428 110.988L770.73 95.6188Z" fill="#0F9D58"/>
</g>
<path d="M871.192 104.432C893.084 115.225 920.143 105.967 931.632 83.7562L852.356 44.6748C840.867 66.8862 849.301 93.6403 871.192 104.432Z" fill="#EA4335"/>
<path d="M913.868 99.8408L884.67 142.849H943.067L913.868 99.8408Z" fill="#FCCA23"/>
<rect x="197.118" y="79.8272" width="32.0063" height="95.0186" transform="rotate(-118.113 197.118 79.8272)" fill="#FBBC04"/>
<g clip-path="url(#clip9_23_1831)">
<path d="M1320.26 118.639L1403.16 72.8358L1451.84 161.197L1368.94 207L1320.26 118.639Z" fill="#0F9D58"/>
<path d="M1369.6 134.599L1390.32 123.148L1402.49 145.238L1381.77 156.689L1369.6 134.599Z" fill="#0F9D58"/>
</g>
<path d="M1477.19 109.66C1505.67 117.653 1535.41 101.588 1543.59 73.7774L1440.43 44.8301C1432.25 72.6411 1448.7 101.666 1477.19 109.66Z" fill="#EA4335"/>
<path d="M1535.74 90.8391L1496.3 148.85H1575.19L1535.74 90.8391Z" fill="#FCCA23"/>
<path d="M1675.05 88.9648C1655.54 117.764 1663.64 156.543 1693.14 175.588L1714.66 143.815C1703.14 136.376 1699.98 121.229 1707.6 109.98C1715.22 98.7357 1730.73 95.6436 1742.25 103.082L1763.77 71.3092C1734.28 52.2647 1694.55 60.1709 1675.05 88.9648Z" fill="#FBBC04"/>
<circle cx="1633.32" cy="54.832" r="22.0043" fill="#EA4335"/>
<circle cx="1527.8" cy="106.342" r="13.5026" fill="#0F9D58"/>
<g clip-path="url(#clip10_23_1831)">
<path d="M1563.15 59.833L1633.01 81.2005L1610.16 155.586L1540.3 134.218L1563.15 59.833Z" fill="#4285F4"/>
<path d="M1580.78 95.7404L1598.25 101.082L1592.53 119.679L1575.07 114.337L1580.78 95.7404Z" fill="#4285F4"/>
</g>
<rect x="1517.38" y="83.8279" width="32.0063" height="95.0186" transform="rotate(-118.113 1517.38 83.8279)" fill="#FBBC04"/>
<path d="M1386.99 92.2971C1407.23 78.1423 1410.55 48.8302 1394.4 26.8267L1321.11 78.0856C1337.26 100.089 1366.75 106.452 1386.99 92.2971Z" fill="#4285F4"/>
<defs>
<clipPath id="clip0_23_1831">
<rect width="94.6924" height="100.863" fill="white" transform="matrix(0.875452 -0.48371 0.482629 0.876048 0 114.639)"/>
</clipPath>
<clipPath id="clip1_23_1831">
<rect width="59.2156" height="53.5381" fill="white" transform="matrix(0.830688 0.55709 -0.592561 0.805768 1209.15 32.7476)"/>
</clipPath>
<clipPath id="clip2_23_1831">
<rect width="40.9774" height="128.755" fill="white" transform="matrix(0.89821 -0.440011 0.47124 0.882227 1241.51 88.866)"/>
</clipPath>
<clipPath id="clip3_23_1831">
<rect width="33.3291" height="100.863" fill="white" transform="matrix(0.91977 -0.392956 0.391821 0.920254 592.116 64.9287)"/>
</clipPath>
<clipPath id="clip4_23_1831">
<rect width="44.7086" height="41.7948" fill="white" transform="matrix(0.705557 0.708929 -0.709799 0.704682 560.77 41.8295)"/>
</clipPath>
<clipPath id="clip5_23_1831">
<rect width="32.4069" height="83.0362" fill="white" transform="matrix(0.852091 -0.523767 0.553327 0.833199 1039.2 40.8293)"/>
</clipPath>
<clipPath id="clip6_23_1831">
<rect width="73.0413" height="77.8009" fill="white" transform="matrix(0.956458 0.29254 -0.29372 0.956096 242.895 55.8322)"/>
</clipPath>
<clipPath id="clip7_23_1831">
<rect width="15.6516" height="10.6245" fill="white" transform="matrix(0.956458 0.29254 -0.29372 0.956096 828.282 112.843)"/>
</clipPath>
<clipPath id="clip8_23_1831">
<rect width="74.5731" height="79.7262" fill="white" transform="matrix(0.770288 -0.638004 0.637053 0.771074 730.143 90.4073)"/>
</clipPath>
<clipPath id="clip9_23_1831">
<rect width="94.6924" height="100.863" fill="white" transform="matrix(0.875452 -0.48371 0.482629 0.876048 1320.26 118.639)"/>
</clipPath>
<clipPath id="clip10_23_1831">
<rect width="73.0413" height="77.8009" fill="white" transform="matrix(0.956458 0.29254 -0.29372 0.956096 1563.15 59.833)"/>
</clipPath>
</defs>
</svg>
