<svg width="613" height="374" viewBox="0 0 613 374" fill="none" xmlns="http://www.w3.org/2000/svg">
<path d="M507.748 243.938C507.748 127.94 413.712 33.9043 297.713 33.9043C181.715 33.9043 87.6793 127.94 87.6793 243.938C87.6793 292.637 104.258 337.459 132.072 373.082H463.356C491.169 337.459 507.748 292.637 507.748 243.938Z" fill="#E6F5FA"/>
<path d="M585.246 288.37H530.983C529.001 288.37 527.395 286.764 527.395 284.782C527.395 282.801 529.001 281.195 530.983 281.195H585.246C587.227 281.195 588.833 282.802 588.833 284.782C588.833 286.764 587.227 288.37 585.246 288.37Z" fill="#E6F5FA"/>
<path d="M63.1675 250.688H3.5875C1.60671 250.688 0 249.082 0 247.1C0 245.119 1.60573 243.513 3.5875 243.513H63.1675C65.1483 243.513 66.755 245.12 66.755 247.1C66.755 249.082 65.1483 250.688 63.1675 250.688Z" fill="#E6F5FA"/>
<path d="M596.858 332.29H591.169C589.675 332.29 588.463 331.078 588.463 329.583V324.244C588.463 322.749 589.675 321.537 591.169 321.537H596.858C598.352 321.537 599.564 322.749 599.564 324.244V329.583C599.564 331.079 598.352 332.29 596.858 332.29Z" fill="#90D3ED"/>
<path d="M48.0196 305.369H40.4851C38.5053 305.369 36.9006 303.764 36.9006 301.784V294.712C36.9006 292.732 38.5053 291.127 40.4851 291.127H48.0196C49.9994 291.127 51.6041 292.732 51.6041 294.712V301.784C51.6041 303.764 49.9994 305.369 48.0196 305.369Z" fill="#90D3ED"/>
<path d="M406.52 8.64673H432.316C433.637 8.64673 434.708 9.73284 434.708 11.0719V23.7185C434.708 25.0576 433.638 26.1437 432.316 26.1437H419.012L411.105 32.9192V26.5022L406.472 26.3703C405.17 26.3439 404.128 25.2656 404.128 23.9451V11.0719C404.128 9.73284 405.2 8.64673 406.52 8.64673Z" stroke="white" stroke-width="1.2926" stroke-miterlimit="10" stroke-linecap="round" stroke-linejoin="round"/>
<path d="M577.368 125.787C577.368 130.165 573.869 133.713 569.553 133.713C565.236 133.713 561.737 130.165 561.737 125.787C561.737 121.41 565.236 117.861 569.553 117.861C573.869 117.861 577.368 121.41 577.368 125.787Z" stroke="white" stroke-width="1.2572" stroke-miterlimit="10"/>
<path d="M16.4715 191.837C16.4715 196.215 12.9719 199.763 8.65581 199.763C4.33871 199.763 0.840088 196.215 0.840088 191.837C0.840088 187.459 4.33968 183.911 8.65581 183.911C12.9719 183.911 16.4715 187.459 16.4715 191.837Z" stroke="white" stroke-width="1.2572" stroke-miterlimit="10"/>
<path d="M551.299 60.1123H502.778C498.065 60.1123 494.244 56.2914 494.244 51.5787V6.4698C494.244 2.89696 497.141 0 500.714 0H551.299C554.872 0 557.769 2.89696 557.769 6.4698V53.6435C557.769 57.2163 554.872 60.1123 551.299 60.1123Z" fill="#0083C8"/>
<path d="M83.202 106.723H28.8181C23.536 106.723 19.2541 102.441 19.2541 97.1588V46.5988C19.2541 42.5943 22.5007 39.3477 26.5053 39.3477H83.202C87.2065 39.3477 90.4532 42.5943 90.4532 46.5988V99.4727C90.4532 103.477 87.2065 106.723 83.202 106.723Z" fill="#FFCC05"/>
<path d="M512.582 16.5419C505.139 23.9845 505.139 36.2024 512.582 43.645C520.025 51.0876 532.242 51.0876 539.685 43.645C547.128 36.2024 547.128 23.9845 539.685 16.5419C532.242 9.09931 520.026 9.09931 512.582 16.5419ZM539.641 19.3021H533.534C532.921 17.3839 532.132 15.4656 531.159 13.5463C534.542 14.5729 537.486 16.6074 539.641 19.3021ZM519.097 28.9727C519.1 26.4957 519.392 24.0197 520.005 21.5427H532.264C532.876 24.0197 533.168 26.4957 533.171 28.9727H519.097ZM533.096 31.2142C532.927 33.6902 532.479 36.1672 531.779 38.6441H520.489C519.789 36.1682 519.341 33.6912 519.172 31.2142H533.096ZM526.134 12.804C527.055 12.804 527.959 12.8763 528.841 13.015C530.015 15.111 530.936 17.2061 531.62 19.3021H520.648C521.331 17.2061 522.252 15.111 523.427 13.015C524.308 12.8763 525.212 12.804 526.134 12.804ZM521.109 13.5463C520.135 15.4656 519.347 17.3839 518.734 19.3021H512.627C514.782 16.6074 517.725 14.5719 521.109 13.5463ZM511.103 21.5427H518.098C517.485 24.0197 517.164 26.4957 517.119 28.9727H508.88C509.053 26.2828 509.839 23.7599 511.103 21.5427ZM511.103 38.6441C509.839 36.428 509.053 33.9041 508.881 31.2142H517.153C517.274 33.6902 517.668 36.1672 518.32 38.6441H511.103ZM512.626 40.8857H518.981C519.615 42.8274 520.404 44.7692 521.343 46.7109C517.862 45.7088 514.831 43.642 512.626 40.8857ZM526.134 47.3838C525.366 47.3838 524.61 47.334 523.869 47.2364C522.812 45.1198 521.913 43.0023 521.189 40.8857H531.079C530.355 43.0033 529.455 45.1198 528.399 47.2364C527.658 47.3331 526.902 47.3838 526.134 47.3838ZM530.924 46.7109C531.863 44.7692 532.653 42.8274 533.286 40.8857H539.641C537.437 43.642 534.406 45.7088 530.924 46.7109ZM541.164 38.6441H533.947C534.599 36.1672 534.993 33.6912 535.114 31.2142H543.386C543.214 33.9041 542.428 36.428 541.164 38.6441ZM543.386 28.9727H535.148C535.103 26.4957 534.781 24.0197 534.168 21.5427H541.164C542.428 23.7599 543.214 26.2828 543.386 28.9727Z" fill="white"/>
<path d="M606.092 242.576H554.272C549.239 242.576 545.158 238.496 545.158 233.462V185.285C545.158 181.469 548.251 178.376 552.067 178.376H606.091C609.907 178.376 613 181.469 613 185.285V235.666C613 239.483 609.907 242.576 606.092 242.576Z" fill="#6FC7BF"/>
<path d="M100.841 188.95L96.6833 198.945C96.6833 198.945 120.634 216.101 140.449 225.948C146.699 229.054 153.962 223.949 153.573 216.981C153.57 216.909 153.566 216.837 153.562 216.766C153.349 212.987 150.862 209.713 147.277 208.498C127.016 201.63 123.058 198.893 100.841 188.95Z" fill="#D97F48"/>
<path d="M99.8499 199.838C99.8499 199.838 79.1347 208.969 71.5182 195.721L102.933 187.924L99.8499 199.838Z" fill="#D97F48"/>
<path d="M164.418 153.38C154.514 170.342 142.57 194.623 136.008 213.124C134.313 217.902 136.052 223.243 140.664 225.347C140.719 225.373 140.773 225.397 140.828 225.423C145.346 227.499 150.694 225.805 153.104 221.455C168.076 194.441 181.411 173.39 181.411 173.39L164.418 153.38Z" fill="#D97F48"/>
<path d="M164.824 148.701C164.824 148.701 149.941 151.862 137.493 188.606L165.508 205.225L175.838 184.711L164.824 148.701Z" fill="#0F9D58"/>
<path d="M151.051 195.976H118.722V190.798H151.051C152.481 190.798 153.641 191.957 153.641 193.387C153.641 194.817 152.481 195.976 151.051 195.976Z" fill="#08101C"/>
<path d="M131.576 195.957H57.9073C56.1834 195.957 54.6587 194.837 54.142 193.193L41.0901 149.557C40.5236 147.753 41.8705 145.916 43.7614 145.916H113.615C115.338 145.916 116.863 147.036 117.38 148.679L131.576 195.957Z" fill="#111D36"/>
<path d="M89.0647 169.207C89.6107 172.241 87.5947 175.143 84.562 175.689C81.5293 176.235 78.6265 174.219 78.0805 171.186C77.5345 168.154 79.5505 165.251 82.5832 164.705C85.6169 164.158 88.5187 166.174 89.0647 169.207Z" fill="#E6F5FA"/>
<path d="M230.949 201.012C230.949 201.012 248.728 265.201 255.982 321.034L268.188 318.719C268.188 318.719 264.399 236.907 252.088 186.296L230.949 201.012Z" fill="#D97F48"/>
<path d="M268.089 315.92C268.089 315.92 286.457 343.042 264.412 355.233C262.96 356.036 261.126 355.709 260.051 354.444L259.909 354.276C258.723 352.88 258.858 350.835 260.144 349.531C263.275 346.356 267.487 339.778 260.775 331.186C260.775 331.186 257.252 332.085 257.842 339.08C257.993 340.88 256.499 342.397 254.701 342.226C253.474 342.11 252.466 341.232 252.166 340.036C251.011 335.425 249.098 323.989 256.47 317.845L268.089 315.92Z" fill="#D97F48"/>
<path d="M233.26 148.7C233.26 148.7 244.633 152.015 256.759 190.422L228.744 207.041L222.246 184.709L233.26 148.7Z" fill="#0F9D58"/>
<path d="M231.546 147.659L210.442 139.258L188.745 139.549L166.975 147.529C162.889 149.026 160.598 153.37 161.666 157.587L177.653 220.651H220.484L235.252 154.677C235.908 151.744 234.337 148.77 231.546 147.659Z" fill="#0F9D58"/>
<path d="M220.485 220.65H177.653V227.504H220.485V220.65Z" fill="#111D36"/>
<path d="M171.256 195.413L163.905 166.419" stroke="#51A99F" stroke-width="1.3684" stroke-miterlimit="10"/>
<path d="M225.798 196.913L232.623 166.419" stroke="#51A99F" stroke-width="1.3684" stroke-miterlimit="10"/>
<path d="M220.484 227.505H177.653C177.653 227.505 156.898 232.765 143.011 329.978C140.894 344.795 139.069 359.237 137.492 373.083H177.941L195.811 283.365L199.719 284.393L206.315 373.083H244.317L245.111 325.171C245.111 325.171 241.687 247.189 220.484 227.505Z" fill="#006AB8"/>
<path d="M199.719 284.392L186.41 279.195" stroke="#005A94" stroke-width="1.3684" stroke-miterlimit="10"/>
<path d="M234.801 102.477C232.906 95.2872 232.217 96.5725 225.843 82.2733C222.034 73.7299 219.088 70.2958 217.332 68.9137C217.332 68.9137 210.891 61.9819 199.373 61.9819C188.374 61.9819 182.005 68.568 182.005 68.568C180.334 69.6814 177.195 72.9085 173.021 82.2723C166.647 96.5725 165.957 95.2862 164.062 102.476C162.167 109.665 164.579 122.931 179.396 125.516C179.396 125.516 177.501 123.621 176.811 120.52C176.811 120.52 183.013 128.962 191.455 128.445H207.408C215.85 128.962 222.052 120.52 222.052 120.52C221.363 123.621 219.468 125.516 219.468 125.516C234.284 122.933 236.696 109.666 234.801 102.477Z" fill="#111D36"/>
<path d="M219.177 142.736L210.442 139.258L207.805 116.277C207.805 116.277 205.083 119.052 201.471 119.723C197.859 120.394 194.36 118.282 194.316 118.257C194.272 118.232 191.366 115.811 191.366 115.811L188.745 139.549L179.227 143.037C179.227 143.037 179.841 149.221 199.973 149.221C220.104 149.222 219.177 142.736 219.177 142.736Z" fill="#D97F48"/>
<path d="M189.705 116.636C189.705 116.636 195.234 127.313 201.819 125.784C208.694 124.187 208.662 115.157 208.662 115.157L189.705 116.636Z" fill="#111D36"/>
<path d="M223.11 85.9486C223.11 99.025 212.934 109.625 200.382 109.625C187.829 109.625 177.653 99.025 177.653 85.9486C177.653 72.8723 187.829 63.9763 200.382 63.9763C212.934 63.9763 223.11 72.8723 223.11 85.9486Z" fill="#111D36"/>
<path d="M219.162 87.1667C219.162 95.3184 218.028 102.354 216.896 107.347C215.787 112.235 212.668 115.651 208.26 118.4L207.457 118.901C202.793 121.811 196.767 121.878 192.032 119.075C187.255 116.248 183.911 112.519 182.883 107.274C181.011 97.7339 180.806 87.1677 180.806 87.1677C180.806 87.1677 179.026 66.5882 199.711 66.9877C220.397 67.3872 219.162 87.1667 219.162 87.1667Z" fill="#D97F48"/>
<path d="M183.062 106.494C179.417 109.641 171.744 97.1804 175.273 93.8195C178.802 90.4596 181.298 95.9273 181.298 95.9273L182.014 99.8645L183.08 105.164L183.354 106.353L183.062 106.494Z" fill="#D97F48"/>
<path d="M176.858 98.0203C176.858 98.0203 178.349 94.7923 181.819 100.46" stroke="#111D36" stroke-width="1.0039" stroke-miterlimit="10" stroke-linecap="round" stroke-linejoin="round"/>
<path d="M216.886 106.567C220.584 109.651 228.043 97.0594 224.457 93.761C220.87 90.4617 218.468 95.9714 218.468 95.9714L217.821 99.9212L216.846 105.239L216.592 106.432L216.886 106.567Z" fill="#D97F48"/>
<path d="M222.944 97.9857C222.944 97.9857 221.398 94.784 218.025 100.509" stroke="#111D36" stroke-width="1.0039" stroke-miterlimit="10" stroke-linecap="round" stroke-linejoin="round"/>
<path d="M181.073 93.5757C181.073 93.5757 189.344 82.3952 187.435 71.0681C187.435 71.0681 181.296 74.1575 179.698 82.1305C178.1 90.1044 181.073 93.5757 181.073 93.5757Z" fill="#111D36"/>
<path d="M219.51 93.7961C219.51 93.7961 209.57 81.6359 211.477 70.3098C211.477 70.3098 218.14 74.1591 219.739 82.132C221.338 90.105 219.51 93.7961 219.51 93.7961Z" fill="#111D36"/>
<path d="M174.936 85.5344H225.009C225.009 85.5344 219.369 64.3229 198.25 63.0591C177.132 61.7942 174.936 85.5344 174.936 85.5344Z" fill="#111D36"/>
<path d="M192.726 95.159C192.726 96.2119 191.872 97.0656 190.819 97.0656C189.766 97.0656 188.913 96.2119 188.913 95.159C188.913 94.1061 189.766 93.2524 190.819 93.2524C191.872 93.2524 192.726 94.1061 192.726 95.159Z" fill="#111D36"/>
<path d="M210.382 95.159C210.382 96.2119 209.528 97.0656 208.476 97.0656C207.423 97.0656 206.569 96.2119 206.569 95.159C206.569 94.1061 207.423 93.2524 208.476 93.2524C209.528 93.2524 210.382 94.1061 210.382 95.159Z" fill="#111D36"/>
<path d="M198.691 99.3135L198.694 101.887C198.695 102.536 199.271 103.022 199.885 102.893L201.254 102.606" stroke="#111D36" stroke-width="0.9876" stroke-miterlimit="10" stroke-linecap="round" stroke-linejoin="round"/>
<path d="M196.485 89.2504L184.928 90.6393C184.928 90.6393 185.856 87.5744 190.578 87.0479C195.301 86.5214 196.485 89.2504 196.485 89.2504Z" fill="#111D36"/>
<path d="M203.15 89.2504L214.707 90.6393C214.707 90.6393 213.779 87.5744 209.057 87.0479C204.334 86.5214 203.15 89.2504 203.15 89.2504Z" fill="#111D36"/>
<path d="M188.943 102.987C193.298 102.987 196.828 99.4569 196.828 95.1021C196.828 90.7473 193.298 87.217 188.943 87.217C184.588 87.217 181.058 90.7473 181.058 95.1021C181.058 99.4569 184.588 102.987 188.943 102.987Z" stroke="#6FC7BF" stroke-width="1.083" stroke-miterlimit="10"/>
<path d="M211.277 102.987C215.632 102.987 219.162 99.4569 219.162 95.1021C219.162 90.7473 215.632 87.217 211.277 87.217C206.922 87.217 203.392 90.7473 203.392 95.1021C203.392 99.4569 206.922 102.987 211.277 102.987Z" stroke="#6FC7BF" stroke-width="1.083" stroke-miterlimit="10"/>
<path d="M196.828 95.7578C196.828 95.7578 199.613 91.4759 203.391 95.7578" stroke="#6FC7BF" stroke-width="1.083" stroke-miterlimit="10"/>
<path d="M193.82 106.5H206.4C206.4 106.5 200.505 113.53 193.82 106.5Z" fill="white"/>
<path d="M466.945 169.191L495.663 194.046C501.095 198.747 501.765 206.93 497.17 212.452C492.554 218 484.336 218.807 478.73 214.263L450.275 191.203L466.945 169.191Z" fill="#F7A771"/>
<path d="M430.351 144.848C451.238 148.223 474.161 169.191 474.161 169.191L455.202 196.312L430.237 175.865L430.351 144.848Z" fill="#EA4335"/>
<path d="M497.268 141.93L476.623 200.915C474.32 207.436 477.966 214.552 484.604 216.491C491.598 218.533 498.789 213.947 499.889 206.745L510.478 144.113L497.268 141.93Z" fill="#F7A771"/>
<path d="M497.268 141.931C497.268 141.931 493.21 136.703 492.407 121.756C492.357 120.823 492.891 119.949 493.736 119.55C494.976 118.965 496.451 119.581 496.906 120.874L498.961 127.114L510.477 144.115L497.268 141.931Z" fill="#F7A771"/>
<path d="M498.961 127.113L499.46 106.371C499.502 105.488 500.086 104.248 501.213 104.201C502.44 104.065 503.374 104.923 503.405 105.886L503.872 120.594L506.608 103.397C506.741 102.561 507.508 101.977 508.349 102.074C509.177 102.169 509.789 102.889 509.749 103.721L508.856 122.386L512.599 107.048C512.801 106.217 513.571 105.652 514.424 105.707C515.43 105.771 516.177 106.664 516.063 107.666L514.138 124.496L521.575 114.021C522.214 113.261 523.373 113.227 524.056 113.949C524.567 114.49 524.657 115.305 524.275 115.945L518.02 128.621C518.02 128.621 517.626 136.509 510.478 144.113L499.424 137.544L498.961 127.113Z" fill="#F7A771"/>
<path d="M498.961 127.113C498.961 127.113 506.781 127.147 506.927 134.169" stroke="#111D36" stroke-width="1.0166" stroke-miterlimit="10" stroke-linecap="round" stroke-linejoin="round"/>
<path d="M428.232 143.226L443.853 149.147C447.938 150.644 448.98 155.178 447.91 159.396L440.69 248.763H379.072L374.325 156.485C373.669 153.553 375.239 150.579 378.031 149.467L399.135 141.066L428.232 143.226Z" fill="#EA4335"/>
<path d="M445.566 188.418L447.008 170.578" stroke="#00678D" stroke-width="1.4581" stroke-miterlimit="10"/>
<path d="M375.761 204.738C375.761 204.738 359.018 269.804 354.833 325.951L342.519 324.308C342.519 324.308 344.328 242.411 353.849 191.202L375.761 204.738Z" fill="#F7A771"/>
<path d="M376.317 150.509C376.317 150.509 362.439 153.824 350.313 192.23L380.832 208.849L387.33 186.518L376.317 150.509Z" fill="#EA4335"/>
<path d="M421.184 141.105L419.978 118.958C419.978 118.958 415.886 121.814 412.168 122.506C408.45 123.197 404.848 121.022 404.803 120.996C404.757 120.969 400.477 118.479 400.477 118.479L399.174 141.064L399.135 141.065L392.627 143.656C392.627 143.656 396.715 150.619 410.349 149.911C423.983 149.203 428.232 143.224 428.232 143.224L421.184 141.105Z" fill="#F7A771"/>
<path d="M399.596 119.328C399.596 119.328 405.618 130.319 412.79 128.745C420.277 127.101 420.558 117.518 420.558 117.518L399.596 119.328Z" fill="#111D36"/>
<path d="M430.38 88.9927C430.38 97.3847 429.213 104.626 428.048 109.766C426.907 114.798 423.695 118.314 419.158 121.144L418.331 121.66C413.531 124.655 407.327 124.725 402.453 121.839C397.536 118.928 394.094 115.091 393.034 109.69C391.107 99.8695 390.897 88.9917 390.897 88.9917C390.897 88.9917 389.064 67.8067 410.357 68.2188C431.651 68.631 430.38 88.9927 430.38 88.9927Z" fill="#F7A771"/>
<path d="M393.219 108.888C389.467 112.127 381.567 99.2992 385.201 95.8407C388.834 92.3821 391.404 98.0099 391.404 98.0099L392.14 102.063L393.237 107.519L393.52 108.743L393.219 108.888Z" fill="#F7A771"/>
<path d="M386.833 100.164C386.833 100.164 388.368 96.8411 391.94 102.675" stroke="#111D36" stroke-width="1.0334" stroke-miterlimit="10" stroke-linecap="round" stroke-linejoin="round"/>
<path d="M428.037 108.964C431.843 112.139 439.522 99.1768 435.83 95.7807C432.138 92.3846 429.665 98.0555 429.665 98.0555L428.998 102.121L427.995 107.595L427.733 108.823L428.037 108.964Z" fill="#F7A771"/>
<path d="M434.273 100.132C434.273 100.132 432.681 96.8351 429.21 102.73" stroke="#111D36" stroke-width="1.0334" stroke-miterlimit="10" stroke-linecap="round" stroke-linejoin="round"/>
<path d="M403.166 95.931C403.166 97.0151 402.287 97.8942 401.203 97.8942C400.119 97.8942 399.24 97.0151 399.24 95.931C399.24 94.8468 400.119 93.9678 401.203 93.9678C402.287 93.9688 403.166 94.8478 403.166 95.931Z" fill="#111D36"/>
<path d="M421.342 95.931C421.342 97.0151 420.463 97.8942 419.379 97.8942C418.295 97.8942 417.416 97.0151 417.416 95.931C417.416 94.8468 418.295 93.9678 419.379 93.9678C420.463 93.9688 421.342 94.8478 421.342 95.931Z" fill="#111D36"/>
<path d="M409.306 98.9182L409.309 102.856C409.31 103.524 409.903 104.025 410.536 103.892L411.944 103.596" stroke="#111D36" stroke-width="1.0166" stroke-miterlimit="10" stroke-linecap="round" stroke-linejoin="round"/>
<path d="M413.333 88.7295L424.661 91.6557C424.661 91.6557 424.146 88.4785 419.512 87.324C414.877 86.1695 413.333 88.7295 413.333 88.7295Z" fill="#111D36"/>
<path d="M406.294 88.7295L394.966 91.6557C394.966 91.6557 395.481 88.4785 400.115 87.324C404.749 86.1695 406.294 88.7295 406.294 88.7295Z" fill="#111D36"/>
<path d="M429.888 63.8894C422.927 58.9657 409.677 63.5456 402.345 66.7404C402.558 64.4187 401.121 62.9419 401.121 62.9419C388.53 66.8039 390.112 73.975 390.992 76.2634C388.524 78.8596 385.132 85.3362 391.569 98.9185C391.569 98.9185 395.164 87.3189 393.635 78.0879C399.604 80.7886 415.804 87.2555 426.101 83.1405C426.455 91.0656 429.524 98.9185 429.524 98.9185C433.42 88.955 432.875 82.9579 431.324 79.4329C433.1 77.3124 438.329 69.8601 429.888 63.8894Z" fill="#111D36"/>
<path d="M429.005 373.083H468.603C453.977 310.587 442.503 267.388 442.503 267.388L440.691 248.763H410.626L411.985 314.183L429.005 373.083Z" fill="#006AB8"/>
<path d="M411.985 314.183L410.626 248.763H379.072C355.455 284.108 368.821 346.916 368.821 346.916L372.42 373.083H411.985V314.183Z" fill="#006AB8"/>
<path d="M411.985 314.184V295.646L420.925 281.796" stroke="#005A94" stroke-width="1.3684" stroke-miterlimit="10"/>
<path d="M290.433 351.352C290.433 351.352 301.072 298.55 307.332 284.155C307.901 282.849 309.792 283.02 310.169 284.393C311.677 289.88 313.663 306.047 312.776 353.633L312.797 373.084H350.139L355.641 326.273C355.641 326.273 363.959 261.029 336.864 223.975H282.556C282.556 223.975 254.865 264.257 251.217 319.889C250.405 332.267 249.006 351.174 247.321 373.085H285.796L290.433 351.352Z" fill="#0083C8"/>
<path d="M298.027 279.197L310.745 284.394" stroke="#00678D" stroke-width="1.4581" stroke-miterlimit="10"/>
<path d="M297.878 120.992L271.76 128.173L282.557 217.33H337.361L348.172 127.782L319.219 120.6L297.878 120.992Z" fill="#FBBC04"/>
<path d="M336.865 217.33H282.557V223.975H336.865V217.33Z" fill="#111D36"/>
<path d="M323.123 185.203C323.123 185.203 345.504 176.223 357.494 182.489L358.624 196.898L322.079 201.493L323.123 185.203Z" fill="#F7A771"/>
<path d="M370.945 214.252C370.945 214.252 334.609 218.616 305.165 203.162L330.106 195.607L360.922 190.424L370.945 214.252Z" fill="#FBBC04"/>
<path d="M346.405 127.51C346.405 127.51 360.518 128.413 369.513 156.356C379.07 186.048 379.765 209.425 373.132 213.346C366.498 217.266 358.267 208.611 349.825 184.701C341.382 160.79 337.487 147.913 337.487 147.913L346.405 127.51Z" fill="#FBBC04"/>
<path d="M343.507 166.423L345.681 148.41" stroke="#FBBC04" stroke-width="1.4581" stroke-miterlimit="10"/>
<path d="M271.76 128.173C271.76 128.173 257.647 129.076 248.652 157.019C239.095 186.711 238.4 210.089 245.033 214.009C251.667 217.929 260.892 209.274 269.335 185.364C277.778 161.453 280.679 148.577 280.679 148.577L271.76 128.173Z" fill="#FBBC04"/>
<path d="M276.184 164.697L274.224 148.408" stroke="#FBBC04" stroke-width="1.4581" stroke-miterlimit="10"/>
<path d="M283.463 185.312C283.463 185.312 273.325 174.807 256.584 169.341C255.853 169.102 255.041 169.276 254.464 169.785C253.288 170.822 253.562 172.725 254.982 173.389L265.069 178.103L251.829 178.986C249.648 179.131 247.966 181.074 248.273 183.238C248.543 185.145 249.834 187.634 253.507 190.522L283.463 185.312Z" fill="#F7A771"/>
<path d="M253.507 190.522C253.507 190.522 301.494 181.055 324.258 181.15L333.342 203.609C333.342 203.609 262.314 221.416 245.034 214.01L253.507 190.522Z" fill="#FBBC04"/>
<path d="M283.463 185.313C283.463 185.313 313.625 180.607 324.258 181.15L325.541 184.322" stroke="#FBBC04" stroke-width="1.4581" stroke-miterlimit="10"/>
<path d="M282.124 213.756L333.343 203.609L325.541 184.323" stroke="#FBBC04" stroke-width="1.4581" stroke-miterlimit="10"/>
<path d="M284.75 82.4805L274.035 96.4652C274.035 96.4652 312.575 126.07 344.273 94.3721L332.965 80.574L284.75 82.4805Z" fill="#111D36"/>
<path d="M319.161 119.909L316.455 98.4342C316.455 98.4342 313.661 101.282 309.954 101.971C306.246 102.659 302.657 100.492 302.611 100.466C302.565 100.439 299.584 97.9556 299.584 97.9556L297.949 120.207C297.949 120.472 297.921 120.734 297.88 120.992L309.616 146.503L319.22 120.599C319.185 120.373 319.161 120.143 319.161 119.909Z" fill="#F7A771"/>
<path d="M297.879 98.8018C297.879 98.8018 303.553 110.788 310.311 109.219C317.366 107.58 317.334 97.2839 317.334 97.2839L297.879 98.8018Z" fill="#111D36"/>
<path d="M332.162 67.3071C332.162 80.7273 321.719 91.607 308.836 91.607C295.953 91.607 285.51 80.7273 285.51 67.3071C285.51 53.887 295.953 44.7566 308.836 44.7566C321.719 44.7566 332.162 53.887 332.162 67.3071Z" fill="#111D36"/>
<path d="M328.111 68.5576C328.111 76.9242 326.948 84.1441 325.786 89.268C324.648 94.2844 321.447 97.7909 316.923 100.613L316.098 101.126C311.312 104.112 305.127 104.182 300.268 101.304C295.366 98.4023 291.934 94.5765 290.878 89.1928C288.956 79.4012 288.746 68.5566 288.746 68.5566C288.746 68.5566 286.919 47.436 308.148 47.8462C329.378 48.2574 328.111 68.5576 328.111 68.5576Z" fill="#F7A771"/>
<path d="M291.062 88.3935C287.321 91.6235 279.446 78.8333 283.067 75.3855C286.69 71.9377 289.252 77.548 289.252 77.548L289.987 81.5897L291.08 87.029L291.363 88.2489L291.062 88.3935Z" fill="#F7A771"/>
<path d="M284.695 79.6947C284.695 79.6947 286.225 76.3817 289.786 82.198" stroke="#111D36" stroke-width="1.0303" stroke-miterlimit="10" stroke-linecap="round" stroke-linejoin="round"/>
<path d="M325.775 88.468C329.57 91.6336 337.226 78.7105 333.545 75.3252C329.863 71.9389 327.398 77.5932 327.398 77.5932L326.733 81.6466L325.733 87.1045L325.472 88.3293L325.775 88.468Z" fill="#F7A771"/>
<path d="M331.993 79.6633C331.993 79.6633 330.405 76.3776 326.945 82.2536" stroke="#111D36" stroke-width="1.0303" stroke-miterlimit="10" stroke-linecap="round" stroke-linejoin="round"/>
<path d="M328.703 63.3893C327.433 57.0543 323.058 53.2666 321.143 51.8748C318.765 49.5209 315.611 47.67 311.431 47.1308C311.431 47.1308 298.175 44.1421 292.687 54.1681C290.795 55.9457 288.506 58.914 287.608 63.3903C285.967 71.5733 289.019 75.1364 289.019 75.1364C289.019 75.1364 294.232 68.0854 295.544 59.4395C299.56 62.7613 307.698 66.9182 323.142 66.7092C325.556 71.7989 328.467 75.362 328.467 75.362C328.467 75.362 330.344 71.5723 328.703 63.3893Z" fill="#111D36"/>
<path d="M300.98 76.7603C300.98 77.8416 300.103 78.7177 299.022 78.7177C297.941 78.7177 297.065 77.8416 297.065 76.7603C297.065 75.6791 297.941 74.803 299.022 74.803C300.103 74.803 300.98 75.6791 300.98 76.7603Z" fill="#111D36"/>
<path d="M319.101 76.7603C319.101 77.8416 318.225 78.7177 317.143 78.7177C316.062 78.7177 315.186 77.8416 315.186 76.7603C315.186 75.6791 316.062 74.803 317.143 74.803C318.225 74.803 319.101 75.6791 319.101 76.7603Z" fill="#111D36"/>
<path d="M306.635 81.0242L306.638 83.6652C306.639 84.3313 307.23 84.8305 307.861 84.6976L309.265 84.4026" stroke="#111D36" stroke-width="1.0135" stroke-miterlimit="10" stroke-linecap="round" stroke-linejoin="round"/>
<path d="M316.27 67.7045C316.27 67.7045 310.539 67.2347 310.481 69.5671C310.481 69.5671 310.486 71.1465 315.486 71.46C320.486 71.7735 321.787 71.4073 322.243 69.9236C322.7 68.439 318.958 67.7182 316.27 67.7045Z" fill="#111D36"/>
<path d="M299.134 67.7045C299.134 67.7045 304.865 67.2347 304.923 69.5671C304.923 69.5671 304.918 71.1465 299.918 71.46C294.918 71.7735 293.618 71.4073 293.161 69.9236C292.704 68.439 296.446 67.7182 299.134 67.7045Z" fill="#111D36"/>
<path d="M313.268 86.7336C313.268 86.7336 311.21 90.0399 305.907 89.1051" stroke="#111D36" stroke-width="1.0135" stroke-miterlimit="10" stroke-linecap="round" stroke-linejoin="round"/>
<path d="M413.888 113.535C413.888 113.535 410.81 115.921 406.162 113.203" stroke="#111D36" stroke-width="1.0135" stroke-miterlimit="10" stroke-linecap="round" stroke-linejoin="round"/>
<path d="M46.8906 373.084H550.178" stroke="#111D36" stroke-width="0.9847" stroke-miterlimit="10" stroke-linecap="round" stroke-linejoin="round"/>
<g clip-path="url(#clip0_23_719)">
<path d="M581.585 207.585L584.211 205.069L580.609 204.519L579 201.246L577.364 204.491L573.761 204.986L576.374 207.585L575.727 211.16L579 209.455L582.217 211.174L581.585 207.585ZM580.361 208.644L578.986 207.901L577.611 208.63L577.886 207.076L576.772 205.976L578.326 205.756L579.027 204.381L579.715 205.756L581.269 205.99L580.141 207.076L580.361 208.644ZM566.625 193.835H561.125V195.21H566.625V193.835ZM573.5 191.085H561.125V192.46H573.5V191.085ZM566.35 203.35L566.625 199.335H577.625V186.96H557V199.335H560.905L566.35 203.35ZM558.375 188.335H576.25V197.96H565.25L565.085 200.71L561.359 197.96H558.375V188.335ZM597.741 218.489L594.125 217.65C594.254 217.476 594.369 217.292 594.469 217.1C595.064 215.81 595.333 214.393 595.252 212.975C595.348 212.824 595.436 212.668 595.514 212.507C595.97 211.613 596.154 210.605 596.042 209.607C595.929 208.61 595.526 207.667 594.881 206.897C594.463 206.518 593.962 206.241 593.418 206.088C592.873 205.935 592.301 205.911 591.746 206.017C590.552 206.176 589.423 206.651 588.474 207.392L588.336 207.489C588.159 207.652 587.954 207.783 587.731 207.874C587.489 207.921 587.237 207.872 587.03 207.736C586.918 207.68 586.815 207.606 586.727 207.516C586.647 207.435 586.547 207.375 586.438 207.343C586.328 207.31 586.212 207.305 586.1 207.328C585.989 207.351 585.884 207.402 585.797 207.475C585.709 207.549 585.642 207.644 585.6 207.75C585.306 208.581 585.268 209.482 585.49 210.335C585.74 211.233 586.258 212.034 586.975 212.631C586.864 214.371 587.251 216.107 588.089 217.636L584.5 218.489C583.568 218.704 582.736 219.229 582.142 219.978C581.547 220.728 581.225 221.657 581.227 222.614V230.96H601V222.614C601.003 221.659 600.683 220.731 600.091 219.982C599.499 219.233 598.671 218.706 597.741 218.489ZM586.824 210.005C586.75 209.713 586.723 209.412 586.741 209.111C587.178 209.287 587.659 209.321 588.116 209.207C588.509 209.069 588.872 208.859 589.189 208.589L589.299 208.492C590.062 207.896 590.967 207.507 591.925 207.365C592.271 207.298 592.628 207.308 592.97 207.394C593.312 207.479 593.631 207.638 593.905 207.86C594.314 208.371 594.578 208.983 594.67 209.631C594.762 210.279 594.678 210.94 594.427 211.545C594.067 211.211 593.66 210.933 593.217 210.72C592.612 210.353 591.894 210.216 591.196 210.335C590.808 210.445 590.459 210.665 590.192 210.967C590.04 211.144 589.859 211.293 589.656 211.407C589.258 211.693 588.767 211.816 588.281 211.751C587.415 211.586 586.934 210.431 586.824 210.005ZM591.114 218.159C590.644 218.146 590.191 217.982 589.821 217.691L589.725 217.567C589.596 217.453 589.481 217.324 589.381 217.182C588.664 215.963 588.302 214.568 588.336 213.154C589.047 213.19 589.751 212.997 590.344 212.604C590.656 212.429 590.939 212.207 591.182 211.944C591.375 211.71 591.375 211.71 591.54 211.71C591.947 211.671 592.354 211.773 592.695 211.999C593.185 212.244 593.609 212.602 593.932 213.044C594.012 214.229 593.794 215.415 593.3 216.495C593.179 216.716 593.041 216.927 592.887 217.127L592.819 217.251C592.734 217.366 592.637 217.472 592.53 217.567L592.461 217.636C592.09 217.968 591.611 218.154 591.114 218.159ZM592.227 219.327V219.616C592.227 219.904 592.113 220.181 591.909 220.384C591.706 220.588 591.429 220.702 591.141 220.702C590.997 220.704 590.855 220.678 590.721 220.624C590.588 220.57 590.467 220.49 590.364 220.389C590.262 220.288 590.181 220.168 590.125 220.035C590.07 219.902 590.041 219.76 590.041 219.616V219.341C590.386 219.462 590.748 219.527 591.114 219.534C591.495 219.534 591.872 219.464 592.227 219.327ZM599.625 229.585H597.301V226.835H595.926V229.585H586.301V226.835H584.926V229.585H582.644V222.614C582.652 221.974 582.874 221.355 583.276 220.856C583.677 220.358 584.234 220.008 584.857 219.864L588.625 218.929V219.616C588.672 220.239 588.952 220.821 589.409 221.246C589.867 221.671 590.469 221.907 591.093 221.907C591.718 221.907 592.319 221.671 592.777 221.246C593.235 220.821 593.515 220.239 593.561 219.616V218.929L597.384 219.836C598.005 219.983 598.559 220.334 598.957 220.832C599.356 221.331 599.576 221.948 599.584 222.586L599.625 229.585ZM590 193.835H584.5V195.21H590V193.835ZM580.375 186.96V199.335H591.375L591.609 203.35L597.109 199.335H601V186.96H580.375ZM599.625 197.96H596.641L592.874 200.71L592.75 197.96H581.75V188.335H599.625V197.96ZM596.875 191.085H584.5V192.46H596.875V191.085ZM573.5 218.489L569.939 217.65C570.063 217.473 570.177 217.289 570.282 217.1C570.878 215.81 571.147 214.393 571.066 212.975C571.162 212.824 571.249 212.668 571.327 212.507C571.784 211.613 571.968 210.605 571.855 209.607C571.743 208.61 571.339 207.667 570.695 206.897C570.277 206.517 569.776 206.239 569.232 206.086C568.687 205.933 568.115 205.91 567.56 206.017C566.366 206.176 565.236 206.651 564.287 207.392L564.15 207.489C563.973 207.652 563.768 207.783 563.545 207.874C563.302 207.908 563.055 207.86 562.844 207.736C562.722 207.705 562.605 207.654 562.5 207.585C562.42 207.501 562.32 207.44 562.209 207.406C562.098 207.372 561.981 207.367 561.867 207.392C561.755 207.413 561.649 207.464 561.562 207.538C561.475 207.613 561.41 207.71 561.372 207.819C561.079 208.625 561.026 209.499 561.221 210.335C561.472 211.233 561.99 212.034 562.706 212.631C562.61 214.381 563.015 216.123 563.875 217.65L560.327 218.489C559.395 218.704 558.564 219.229 557.969 219.978C557.375 220.728 557.052 221.657 557.055 222.614V230.96H576.731V222.614C576.736 221.663 576.42 220.738 575.833 219.989C575.247 219.24 574.425 218.712 573.5 218.489ZM562.5 210.005C562.454 209.709 562.454 209.407 562.5 209.111C562.938 209.282 563.417 209.315 563.875 209.207C564.268 209.069 564.631 208.859 564.947 208.589L565.057 208.492C565.821 207.896 566.726 207.507 567.684 207.365C568.03 207.292 568.388 207.299 568.731 207.385C569.074 207.471 569.393 207.633 569.664 207.86C570.073 208.371 570.337 208.983 570.429 209.631C570.521 210.279 570.437 210.94 570.186 211.545C569.826 211.211 569.418 210.933 568.976 210.72C568.367 210.348 567.644 210.211 566.941 210.335C566.548 210.442 566.194 210.662 565.924 210.967C565.768 211.14 565.587 211.289 565.387 211.407C564.988 211.69 564.498 211.813 564.012 211.751C563.146 211.586 562.665 210.431 562.5 210.005ZM566.79 218.159C566.32 218.144 565.868 217.98 565.497 217.691L565.401 217.567C565.293 217.459 565.196 217.339 565.112 217.21C564.396 215.991 564.034 214.595 564.067 213.181C564.778 213.217 565.482 213.025 566.075 212.631C566.388 212.457 566.671 212.234 566.914 211.971C567.001 211.847 567.127 211.755 567.271 211.71C567.678 211.674 568.085 211.775 568.426 211.999C568.916 212.244 569.34 212.602 569.664 213.044C569.743 214.229 569.525 215.415 569.031 216.495C568.91 216.713 568.776 216.924 568.632 217.127L568.55 217.21C568.464 217.32 568.372 217.426 568.275 217.526L568.192 217.595C567.828 217.942 567.348 218.143 566.845 218.159H566.79ZM567.904 219.327V219.616C567.904 219.904 567.789 220.181 567.586 220.384C567.382 220.588 567.106 220.702 566.817 220.702C566.674 220.704 566.531 220.678 566.398 220.624C566.264 220.57 566.143 220.49 566.04 220.389C565.938 220.288 565.857 220.168 565.801 220.035C565.746 219.902 565.717 219.76 565.717 219.616V219.327C566.063 219.448 566.424 219.517 566.79 219.534C567.203 219.547 567.615 219.477 568 219.327H567.904ZM575.356 229.585H573.032V226.835H571.657V229.585H562.032V226.835H560.657V229.585H558.375V222.614C558.383 221.974 558.606 221.355 559.007 220.856C559.408 220.358 559.965 220.008 560.589 219.864L564.397 218.956V219.644C564.444 220.266 564.724 220.849 565.182 221.273C565.64 221.698 566.241 221.934 566.866 221.934C567.49 221.934 568.092 221.698 568.549 221.273C569.007 220.849 569.287 220.266 569.334 219.644V218.956L573.156 219.864C573.777 220.011 574.331 220.362 574.73 220.86C575.128 221.358 575.349 221.976 575.356 222.614V229.585Z" fill="white"/>
</g>
<path d="M46.285 73.4601L33.565 61.0051C33.035 60.4751 33.035 59.6801 33.565 59.1501L39.925 52.7901C40.455 52.2601 41.25 52.2601 41.78 52.7901L54.235 65.2451" stroke="white" stroke-miterlimit="10"/>
<path d="M62.45 73.46L75.17 86.18C75.7 86.71 75.7 87.505 75.17 88.035L68.81 94.395C68.28 94.925 67.485 94.925 66.955 94.395L54.5 81.675" stroke="white" stroke-miterlimit="10"/>
<path d="M65.2521 92.7058L62.6288 90.0824L68.063 84.6484L70.6863 87.2718L65.2521 92.7058Z" fill="white"/>
<path d="M59.8004 87.1394L57.177 84.516L59.9878 81.7053L62.6112 84.3287L59.8004 87.1394Z" fill="white"/>
<path d="M43.5724 70.7227L40.9491 68.0992L46.3833 62.6652L49.0067 65.2886L43.5724 70.7227Z" fill="white"/>
<path d="M38.1188 65.5354L35.4955 62.912L38.3063 60.1013L40.9296 62.7247L38.1188 65.5354Z" fill="white"/>
<path d="M65.1 54.645L66.69 53.055C67.75 51.995 69.34 51.995 70.4 53.055L74.905 57.56C75.965 58.62 75.965 60.21 74.905 61.27L73.315 62.86" stroke="white" stroke-miterlimit="10" stroke-linecap="round" stroke-linejoin="round"/>
<path d="M63.0249 56.9946L71.0822 65.0523L45.7851 90.3486L37.7277 82.2909L63.0249 56.9946Z" stroke="white" stroke-miterlimit="10" stroke-linecap="round" stroke-linejoin="round"/>
<path d="M39.7117 85.4973L65.5702 59.638L68.1936 62.2613L42.3351 88.1206L39.7117 85.4973Z" fill="white"/>
<path d="M33.565 94.3951L37.54 82.2051L45.755 90.4201L33.565 94.3951Z" stroke="white" stroke-miterlimit="10" stroke-linecap="round" stroke-linejoin="round"/>
<path d="M34.89 90.4199L33.565 94.3949L37.54 93.0699L34.89 90.4199Z" fill="white"/>
<path d="M73.845 62.33L70.665 65.245L62.715 57.295L65.63 54.115" stroke="white" stroke-miterlimit="10" stroke-linecap="round" stroke-linejoin="round"/>
<defs>
<clipPath id="clip0_23_719">
<rect width="44" height="44" fill="white" transform="translate(557 186.96)"/>
</clipPath>
</defs>
</svg>
