<svg width="26" height="26" viewBox="0 0 26 26" fill="none" xmlns="http://www.w3.org/2000/svg">
<path fill-rule="evenodd" clip-rule="evenodd" d="M7.64046 0.0779877C9.02673 0.0141796 9.46873 0 13 0C16.5313 0 16.9733 0.0153612 18.3584 0.0779877C19.7435 0.140614 20.6889 0.36158 21.5162 0.681802C22.3825 1.00911 23.1684 1.52076 23.8184 2.18248C24.4802 2.83119 24.9907 3.6158 25.3169 4.48311C25.6384 5.31026 25.8582 6.25556 25.922 7.63807C25.9858 9.02649 26 9.46842 26 12.998C26 16.5287 25.9846 16.9706 25.922 18.3567C25.8594 19.7392 25.6384 20.6845 25.3169 21.5116C24.9907 22.3791 24.4793 23.165 23.8184 23.8146C23.1684 24.4763 22.3825 24.9868 21.5162 25.3129C20.6889 25.6343 19.7435 25.8541 18.3607 25.9179C16.9733 25.9817 16.5313 25.9959 13 25.9959C9.46873 25.9959 9.02673 25.9806 7.64046 25.9179C6.25773 25.8553 5.31228 25.6343 4.485 25.3129C3.61745 24.9868 2.83143 24.4755 2.18164 23.8146C1.52027 23.1655 1.00846 22.38 0.681909 21.5128C0.361637 20.6857 0.141818 19.7404 0.078 18.3578C0.0141818 16.9694 0 16.5275 0 12.998C0 9.46724 0.0153636 9.02531 0.078 7.64044C0.140636 6.25556 0.361637 5.31026 0.681909 4.48311C1.00895 3.61589 1.52114 2.83038 2.18282 2.18129C2.83169 1.52017 3.61692 1.00846 4.48382 0.681802C5.31109 0.36158 6.25655 0.141796 7.63928 0.0779877H7.64046ZM18.2532 2.41762C16.8823 2.35499 16.471 2.342 13 2.342C9.529 2.342 9.11773 2.35499 7.74682 2.41762C6.47873 2.47552 5.79091 2.68703 5.33237 2.86546C4.72609 3.10179 4.29237 3.38183 3.83737 3.83676C3.40605 4.2563 3.07412 4.76704 2.86591 5.33153C2.68746 5.79 2.47591 6.47771 2.418 7.7456C2.35536 9.1163 2.34237 9.5275 2.34237 12.998C2.34237 16.4684 2.35536 16.8796 2.418 18.2503C2.47591 19.5182 2.68746 20.2059 2.86591 20.6644C3.07391 21.228 3.406 21.7397 3.83737 22.1592C4.25691 22.5905 4.76864 22.9225 5.33237 23.1305C5.79091 23.3089 6.47873 23.5204 7.74682 23.5783C9.11773 23.6409 9.52782 23.6539 13 23.6539C16.4722 23.6539 16.8823 23.6409 18.2532 23.5783C19.5213 23.5204 20.2091 23.3089 20.6676 23.1305C21.2739 22.8941 21.7076 22.6141 22.1626 22.1592C22.594 21.7397 22.9261 21.228 23.1341 20.6644C23.3126 20.2059 23.5241 19.5182 23.582 18.2503C23.6446 16.8796 23.6576 16.4684 23.6576 12.998C23.6576 9.5275 23.6446 9.1163 23.582 7.7456C23.5241 6.47771 23.3126 5.79 23.1341 5.33153C22.8977 4.72535 22.6176 4.29169 22.1626 3.83676C21.743 3.40555 21.2322 3.07368 20.6676 2.86546C20.2091 2.68703 19.5213 2.47552 18.2532 2.41762ZM11.3396 17.0049C12.2669 17.3908 13.2995 17.4429 14.2609 17.1523C15.2224 16.8616 16.0531 16.2462 16.6112 15.4111C17.1693 14.5761 17.4201 13.5733 17.3208 12.5739C17.2215 11.5745 16.7783 10.6406 16.0668 9.93162C15.6133 9.47844 15.0649 9.13144 14.4611 8.91559C13.8574 8.69975 13.2132 8.62044 12.5751 8.68336C11.937 8.74629 11.3208 8.94989 10.7709 9.27952C10.2209 9.60914 9.75088 10.0566 9.39464 10.5896C9.03839 11.1227 8.80477 11.728 8.71061 12.3622C8.61645 12.9963 8.66409 13.6435 8.8501 14.257C9.0361 14.8705 9.35585 15.4352 9.78631 15.9104C10.2168 16.3855 10.7473 16.7593 11.3396 17.0049ZM8.27509 8.27379C8.89558 7.65341 9.6322 7.16129 10.4429 6.82554C11.2536 6.48979 12.1225 6.31698 13 6.31698C13.8775 6.31698 14.7464 6.48979 15.5571 6.82554C16.3678 7.16129 17.1044 7.65341 17.7249 8.27379C18.3454 8.89418 18.8376 9.63068 19.1734 10.4413C19.5092 11.2518 19.682 12.1206 19.682 12.998C19.682 13.8753 19.5092 14.7441 19.1734 15.5547C18.8376 16.3652 18.3454 17.1017 17.7249 17.7221C16.4718 18.9751 14.7722 19.6789 13 19.6789C11.2278 19.6789 9.52822 18.9751 8.27509 17.7221C7.02197 16.4692 6.31797 14.7699 6.31797 12.998C6.31797 11.2261 7.02197 9.52672 8.27509 8.27379ZM21.164 7.31194C21.3178 7.16692 21.4409 6.99253 21.526 6.79908C21.6111 6.60564 21.6566 6.39709 21.6597 6.18576C21.6628 5.97444 21.6234 5.76465 21.5439 5.56881C21.4645 5.37297 21.3465 5.19506 21.1971 5.04562C21.0476 4.89617 20.8697 4.77824 20.6738 4.69878C20.4779 4.61933 20.2681 4.57998 20.0567 4.58306C19.8454 4.58614 19.6368 4.63159 19.4433 4.71672C19.2498 4.80185 19.0754 4.92492 18.9304 5.07866C18.6483 5.37764 18.4938 5.77478 18.4998 6.18576C18.5058 6.59675 18.6718 6.98921 18.9625 7.27985C19.2532 7.57049 19.6457 7.73642 20.0567 7.74241C20.4678 7.7484 20.865 7.59399 21.164 7.31194Z" fill="black"/>
</svg>
